<svg width="23" height="23" viewBox="0 0 23 23" fill="none" xmlns="http://www.w3.org/2000/svg">
<rect width="23" height="23" rx="2" fill="#2F3854"/>
<path d="M23 11.5C23 17.8513 17.8513 23 11.5 23C5.14873 23 0 17.8513 0 11.5C0 5.14873 5.14873 0 11.5 0C17.8513 0 23 5.14873 23 11.5Z" fill="white"/>
<path d="M17 8C17 10.7614 15.0899 13 11.5 13C7.91015 13 6 10.7614 6 8C6 5.23858 7.91015 3 11.5 3C15.0899 3 17 5.23858 17 8Z" fill="#2F3854"/>
<path d="M6.82416 2.89062C6.829 2.47944 7.30048 2.24956 7.62741 2.49899L9.32485 3.79405C9.62067 4.01974 9.57514 4.47793 9.24069 4.64099L7.51812 5.48085C7.18367 5.64391 6.79465 5.39759 6.79903 5.02553L6.82416 2.89062Z" fill="#2F3854"/>
<path d="M14.9922 2.53717C15.3484 2.30677 15.8116 2.59665 15.7601 3.01771L15.5377 4.83506C15.4933 5.19833 15.0864 5.39233 14.7762 5.19818L13.4612 4.37527C13.151 4.18112 13.1476 3.73039 13.4549 3.53161L14.9922 2.53717Z" fill="#2F3854"/>
<path d="M14 17.4674C14 21.5916 12.6569 19.438 11 19.438C9.34315 19.438 8 21.5916 8 17.4674C8 13.3433 9.34315 10 11 10C12.6569 10 14 13.3433 14 17.4674Z" fill="#2F3854"/>
<path d="M13 16L14.8753 17.5002C15.2405 17.7924 15.7595 17.7924 16.1247 17.5002L18 16" stroke="#2F3854"/>
</svg>
