<svg width="21" height="21" viewBox="0 0 21 21" fill="none" xmlns="http://www.w3.org/2000/svg">
<rect width="20" height="20" rx="2" fill="#2F3854"/>
<path d="M21.0001 10.5C21.0001 16.299 16.2991 21 10.5001 21C4.70107 21 6.17738e-05 16.299 6.17738e-05 10.5C6.17738e-05 4.70101 4.70107 0 10.5001 0C16.2991 0 21.0001 4.70101 21.0001 10.5Z" fill="white"/>
<path d="M16 7.5C16 9.98528 14.0899 12 10.5 12C6.91015 12 5 9.98528 5 7.5C5 5.01472 6.91015 3 10.5 3C14.0899 3 16 5.01472 16 7.5Z" fill="#2F3854"/>
<path d="M6.82416 2.89062C6.829 2.47944 7.30048 2.24956 7.62741 2.49899L9.32485 3.79405C9.62067 4.01974 9.57514 4.47793 9.24069 4.64099L7.51812 5.48085C7.18367 5.64391 6.79465 5.39759 6.79903 5.02553L6.82416 2.89062Z" fill="#2F3854"/>
<path d="M13.9922 2.53717C14.3484 2.30677 14.8116 2.59665 14.7601 3.01771L14.5377 4.83506C14.4933 5.19833 14.0864 5.39233 13.7762 5.19818L12.4612 4.37527C12.151 4.18112 12.1476 3.73039 12.4549 3.53161L13.9922 2.53717Z" fill="#2F3854"/>
<path d="M13 15.7207C13 19.4324 11.8807 17.4942 10.5 17.4942C9.11929 17.4942 8 19.4324 8 15.7207C8 12.0089 9.11929 9 10.5 9C11.8807 9 13 12.0089 13 15.7207Z" fill="#2F3854"/>
<path d="M12 15L13.9855 16.1913C14.3022 16.3813 14.6978 16.3813 15.0145 16.1913L17 15" stroke="#2F3854"/>
</svg>
