<svg width="23" height="23" viewBox="0 0 23 23" fill="none" xmlns="http://www.w3.org/2000/svg">
<path d="M22.5 11.5C22.5 17.5751 17.5751 22.5 11.5 22.5C5.42487 22.5 0.5 17.5751 0.5 11.5C0.5 5.42487 5.42487 0.5 11.5 0.5C17.5751 0.5 22.5 5.42487 22.5 11.5Z" fill="white" stroke="#525D7D"/>
<path d="M17 8C17 10.7614 15.0899 13 11.5 13C7.91015 13 6 10.7614 6 8C6 5.23858 7.91015 3 11.5 3C15.0899 3 17 5.23858 17 8Z" fill="#525D7D"/>
<path d="M6.82416 2.89062C6.829 2.47944 7.30048 2.24956 7.62741 2.49899L9.32485 3.79405C9.62067 4.01974 9.57514 4.47793 9.24069 4.64099L7.51812 5.48085C7.18367 5.64391 6.79465 5.39759 6.79903 5.02553L6.82416 2.89062Z" fill="#525D7D"/>
<path d="M14.9923 2.53717C15.3484 2.30677 15.8117 2.59665 15.7601 3.01771L15.5378 4.83506C15.4933 5.19833 15.0865 5.39233 14.7762 5.19818L13.4613 4.37527C13.1511 4.18112 13.1477 3.73039 13.455 3.53161L14.9923 2.53717Z" fill="#525D7D"/>
<path d="M14 17.4674C14 21.5916 12.6569 19.438 11 19.438C9.34315 19.438 8 21.5916 8 17.4674C8 13.3433 9.34315 10 11 10C12.6569 10 14 13.3433 14 17.4674Z" fill="#525D7D"/>
<path d="M13 16L14.8753 17.5002C15.2405 17.7924 15.7595 17.7924 16.1247 17.5002L18 16" stroke="#525D7D"/>
</svg>
