<svg width="33" height="22" viewBox="0 0 33 22" fill="none" xmlns="http://www.w3.org/2000/svg">
<rect width="22" height="21" rx="3" fill="white"/>
<path d="M8.07617 15H5.76562V7.60352H8.07617V15ZM5.62891 5.69629C5.62891 5.36816 5.7474 5.09928 5.98438 4.88965C6.22135 4.68001 6.52897 4.5752 6.90723 4.5752C7.28548 4.5752 7.5931 4.68001 7.83008 4.88965C8.06706 5.09928 8.18555 5.36816 8.18555 5.69629C8.18555 6.02441 8.06706 6.29329 7.83008 6.50293C7.5931 6.71257 7.28548 6.81738 6.90723 6.81738C6.52897 6.81738 6.22135 6.71257 5.98438 6.50293C5.7474 6.29329 5.62891 6.02441 5.62891 5.69629ZM11.6172 7.60352L11.6924 8.47168C12.2028 7.80176 12.9069 7.4668 13.8047 7.4668C14.5749 7.4668 15.1491 7.69694 15.5273 8.15723C15.9102 8.61751 16.1084 9.31022 16.1221 10.2354V15H13.8115V10.3311C13.8115 9.95736 13.7363 9.68392 13.5859 9.51074C13.4355 9.33301 13.1621 9.24414 12.7656 9.24414C12.3145 9.24414 11.9795 9.42188 11.7607 9.77734V15H9.45703V7.60352H11.6172Z" fill="#2F3854"/>
</svg>
