<svg width="33" height="20" viewBox="0 0 33 20" fill="none" xmlns="http://www.w3.org/2000/svg">
<rect width="20" height="20" rx="3" fill="white"/>
<path d="M7.07617 15H4.76562V7.60352H7.07617V15ZM4.62891 5.69629C4.62891 5.36816 4.7474 5.09928 4.98438 4.88965C5.22135 4.68001 5.52897 4.5752 5.90723 4.5752C6.28548 4.5752 6.5931 4.68001 6.83008 4.88965C7.06706 5.09928 7.18555 5.36816 7.18555 5.69629C7.18555 6.02441 7.06706 6.29329 6.83008 6.50293C6.5931 6.71257 6.28548 6.81738 5.90723 6.81738C5.52897 6.81738 5.22135 6.71257 4.98438 6.50293C4.7474 6.29329 4.62891 6.02441 4.62891 5.69629ZM10.6172 7.60352L10.6924 8.47168C11.2028 7.80176 11.9069 7.4668 12.8047 7.4668C13.5749 7.4668 14.1491 7.69694 14.5273 8.15723C14.9102 8.61751 15.1084 9.31022 15.1221 10.2354V15H12.8115V10.3311C12.8115 9.95736 12.7363 9.68392 12.5859 9.51074C12.4355 9.33301 12.1621 9.24414 11.7656 9.24414C11.3145 9.24414 10.9795 9.42188 10.7607 9.77734V15H8.45703V7.60352H10.6172Z" fill="#2F3854"/>
</svg>
