<svg width="20" height="20" viewBox="0 0 20 20" fill="none" xmlns="http://www.w3.org/2000/svg">
<rect x="0.5" y="0.5" width="19" height="19" rx="2.5" fill="#525D7D" stroke="#525D7D"/>
<path d="M7.62158 14.8182H5.31104V7.42169H7.62158V14.8182ZM5.17432 5.51447C5.17432 5.18634 5.29281 4.91746 5.52979 4.70782C5.76676 4.49819 6.07438 4.39337 6.45264 4.39337C6.83089 4.39337 7.13851 4.49819 7.37549 4.70782C7.61247 4.91746 7.73096 5.18634 7.73096 5.51447C7.73096 5.84259 7.61247 6.11147 7.37549 6.32111C7.13851 6.53074 6.83089 6.63556 6.45264 6.63556C6.07438 6.63556 5.76676 6.53074 5.52979 6.32111C5.29281 6.11147 5.17432 5.84259 5.17432 5.51447ZM11.1626 7.42169L11.2378 8.28986C11.7482 7.61993 12.4523 7.28497 13.3501 7.28497C14.1203 7.28497 14.6945 7.51512 15.0728 7.9754C15.4556 8.43569 15.6538 9.1284 15.6675 10.0535V14.8182H13.3569V10.1492C13.3569 9.77553 13.2817 9.5021 13.1313 9.32892C12.981 9.15118 12.7075 9.06232 12.311 9.06232C11.8599 9.06232 11.5249 9.24005 11.3062 9.59552V14.8182H9.00244V7.42169H11.1626Z" fill="white"/>
</svg>
