<svg width="22" height="22" viewBox="0 0 22 22" fill="none" xmlns="http://www.w3.org/2000/svg">
<rect x="0.5" y="0.5" width="21" height="21" rx="2.5" fill="white" stroke="#525D7D"/>
<path d="M8.07617 16H5.76562V8.60352H8.07617V16ZM5.62891 6.69629C5.62891 6.36816 5.7474 6.09928 5.98438 5.88965C6.22135 5.68001 6.52897 5.5752 6.90723 5.5752C7.28548 5.5752 7.5931 5.68001 7.83008 5.88965C8.06706 6.09928 8.18555 6.36816 8.18555 6.69629C8.18555 7.02441 8.06706 7.29329 7.83008 7.50293C7.5931 7.71257 7.28548 7.81738 6.90723 7.81738C6.52897 7.81738 6.22135 7.71257 5.98438 7.50293C5.7474 7.29329 5.62891 7.02441 5.62891 6.69629ZM11.6172 8.60352L11.6924 9.47168C12.2028 8.80176 12.9069 8.4668 13.8047 8.4668C14.5749 8.4668 15.1491 8.69694 15.5273 9.15723C15.9102 9.61751 16.1084 10.3102 16.1221 11.2354V16H13.8115V11.3311C13.8115 10.9574 13.7363 10.6839 13.5859 10.5107C13.4355 10.333 13.1621 10.2441 12.7656 10.2441C12.3145 10.2441 11.9795 10.4219 11.7607 10.7773V16H9.45703V8.60352H11.6172Z" fill="#525D7D"/>
</svg>
