<svg width="847" height="520" xmlns="http://www.w3.org/2000/svg" version="1.1"><g transform="translate(0, 10)"><g class="links" fill="none" stroke-opacity="0.4"><path d="M5,98.75000000000003C107.75,98.75000000000003,107.75,218.75000000000003,210.5,218.75000000000003" stroke-width="97.5" style="stroke: rgb(191, 105, 105);"></path><path d="M5,163.75000000000003C107.75,163.75000000000003,107.75,293.75000000000006,210.5,293.75000000000006" stroke-width="32.5" style="stroke: rgb(191, 105, 105);"></path><path d="M5,196.25000000000003C107.75,196.25000000000003,107.75,368.74999999999994,210.5,368.74999999999994" stroke-width="32.5" style="stroke: rgb(191, 105, 105);"></path><path d="M5,228.75000000000003C107.75,228.75000000000003,107.75,453.74999999999994,210.5,453.74999999999994" stroke-width="32.5" style="stroke: rgb(191, 105, 105);"></path><path d="M5,320.0000000000001C107.75,320.0000000000001,107.75,95.00000000000014,210.5,95.00000000000014" stroke-width="130" style="stroke: rgb(191, 130, 105);"></path><path d="M5,401.2500000000001C107.75,401.2500000000001,107.75,326.25000000000006,210.5,326.25000000000006" stroke-width="32.5" style="stroke: rgb(191, 130, 105);"></path><path d="M5,433.7500000000001C107.75,433.7500000000001,107.75,411.24999999999994,210.5,411.24999999999994" stroke-width="32.5" style="stroke: rgb(191, 130, 105);"></path><path d="M215.5,218.75000000000003C318.25,218.75000000000003,318.25,181.25000000000014,421,181.25000000000014" stroke-width="97.5" style="stroke: rgb(191, 154, 105);"></path><path d="M215.5,326.25000000000006C318.25,326.25000000000006,318.25,416.2500000000002,421,416.2500000000002" stroke-width="32.5" style="stroke: rgb(191, 179, 105);"></path><path d="M215.5,293.75000000000006C318.25,293.75000000000006,318.25,331.2500000000002,421,331.2500000000002" stroke-width="32.5" style="stroke: rgb(191, 179, 105);"></path><path d="M215.5,368.74999999999994C318.25,368.74999999999994,318.25,73.75000000000003,421,73.75000000000003" stroke-width="32.5" style="stroke: rgb(179, 191, 105);"></path><path d="M215.5,453.74999999999994C318.25,453.74999999999994,318.25,106.25000000000003,421,106.25000000000003" stroke-width="32.5" style="stroke: rgb(154, 191, 105);"></path><path d="M215.5,95.00000000000014C318.25,95.00000000000014,318.25,272.5000000000002,421,272.5000000000002" stroke-width="65" style="stroke: rgb(130, 191, 105);"></path><path d="M215.5,46.25000000000014C318.25,46.25000000000014,318.25,41.25000000000003,421,41.25000000000003" stroke-width="32.5" style="stroke: rgb(130, 191, 105);"></path><path d="M215.5,143.75000000000014C318.25,143.75000000000014,318.25,373.7500000000002,421,373.7500000000002" stroke-width="32.5" style="stroke: rgb(130, 191, 105);"></path><path d="M215.5,411.24999999999994C318.25,411.24999999999994,318.25,458.7500000000002,421,458.7500000000002" stroke-width="32.5" style="stroke: rgb(105, 191, 105);"></path><path d="M426,148.75000000000014C528.75,148.75000000000014,528.75,251.25000000000006,631.5,251.25000000000006" stroke-width="32.5" style="stroke: rgb(105, 191, 130);"></path><path d="M426,181.25000000000014C528.75,181.25000000000014,528.75,368.74999999999994,631.5,368.74999999999994" stroke-width="32.5" style="stroke: rgb(105, 191, 130);"></path><path d="M426,213.75000000000014C528.75,213.75000000000014,528.75,453.74999999999994,631.5,453.74999999999994" stroke-width="32.5" style="stroke: rgb(105, 191, 130);"></path><path d="M426,416.2500000000002C528.75,416.2500000000002,528.75,176.25000000000006,631.5,176.25000000000006" stroke-width="32.5" style="stroke: rgb(105, 191, 154);"></path><path d="M426,73.75000000000003C528.75,73.75000000000003,528.75,218.75000000000006,631.5,218.75000000000006" stroke-width="32.5" style="stroke: rgb(105, 191, 179);"></path><path d="M426,106.25000000000003C528.75,106.25000000000003,528.75,411.24999999999994,631.5,411.24999999999994" stroke-width="32.5" style="stroke: rgb(105, 191, 179);"></path><path d="M426,41.25000000000003C528.75,41.25000000000003,528.75,46.25000000000006,631.5,46.25000000000006" stroke-width="32.5" style="stroke: rgb(105, 191, 179);"></path><path d="M426,272.5000000000002C528.75,272.5000000000002,528.75,95.00000000000006,631.5,95.00000000000006" stroke-width="65" style="stroke: rgb(105, 179, 191);"></path><path d="M426,373.7500000000002C528.75,373.7500000000002,528.75,283.75000000000006,631.5,283.75000000000006" stroke-width="32.5" style="stroke: rgb(105, 154, 191);"></path><path d="M426,331.2500000000002C528.75,331.2500000000002,528.75,143.75000000000006,631.5,143.75000000000006" stroke-width="32.5" style="stroke: rgb(105, 130, 191);"></path><path d="M426,458.7500000000002C528.75,458.7500000000002,528.75,326.2499999999999,631.5,326.2499999999999" stroke-width="32.5" style="stroke: rgb(105, 105, 191);"></path><path d="M636.5,218.75000000000006C739.25,218.75000000000006,739.25,143.75000000000045,842,143.75000000000045" stroke-width="32.5" style="stroke: rgb(130, 105, 191);"></path><path d="M636.5,283.75000000000006C739.25,283.75000000000006,739.25,483.75000000000006,842,483.75000000000006" stroke-width="32.5" style="stroke: rgb(130, 105, 191);"></path><path d="M636.5,251.25000000000006C739.25,251.25000000000006,739.25,313.75000000000045,842,313.75000000000045" stroke-width="32.5" style="stroke: rgb(130, 105, 191);"></path><path d="M636.5,368.74999999999994C739.25,368.74999999999994,739.25,101.25000000000043,842,101.25000000000043" stroke-width="32.5" style="stroke: rgb(154, 105, 191);"></path><path d="M636.5,453.74999999999994C739.25,453.74999999999994,739.25,58.75000000000034,842,58.75000000000034" stroke-width="32.5" style="stroke: rgb(179, 105, 191);"></path><path d="M636.5,46.25000000000006C739.25,46.25000000000006,739.25,16.250000000000227,842,16.250000000000227" stroke-width="32.5" style="stroke: rgb(191, 105, 179);"></path><path d="M636.5,78.75000000000006C739.25,78.75000000000006,739.25,228.75000000000045,842,228.75000000000045" stroke-width="32.5" style="stroke: rgb(191, 105, 179);"></path><path d="M636.5,176.25000000000006C739.25,176.25000000000006,739.25,441.2500000000003,842,441.2500000000003" stroke-width="32.5" style="stroke: rgb(191, 105, 179);"></path><path d="M636.5,143.75000000000006C739.25,143.75000000000006,739.25,398.7500000000004,842,398.7500000000004" stroke-width="32.5" style="stroke: rgb(191, 105, 179);"></path><path d="M636.5,111.25000000000006C739.25,111.25000000000006,739.25,271.25000000000045,842,271.25000000000045" stroke-width="32.5" style="stroke: rgb(191, 105, 179);"></path><path d="M636.5,411.24999999999994C739.25,411.24999999999994,739.25,356.25000000000045,842,356.25000000000045" stroke-width="32.5" style="stroke: rgb(191, 105, 154);"></path><path d="M636.5,326.2499999999999C739.25,326.2499999999999,739.25,186.25000000000045,842,186.25000000000045" stroke-width="32.5" style="stroke: rgb(191, 105, 130);"></path></g><g class="nodes" font-family="Arial, Helvetica" font-size="10"><g><rect x="421" y="132.50000000000014" height="97.50000000000007" width="5" fill="#000"></rect><text x="415" y="181.25000000000017" dy="0.35em" text-anchor="end">command line</text></g><g><rect x="421" y="25.00000000000003" height="97.50000000000011" width="5" fill="#000"></rect><text x="415" y="73.75000000000009" dy="0.35em" text-anchor="end">custom js framework</text></g><g><rect x="421" y="315.0000000000002" height="32.5" width="5" fill="#000"></rect><text x="415" y="331.2500000000002" dy="0.35em" text-anchor="end">cypress</text></g><g><rect x="421" y="442.5000000000002" height="32.49999999999977" width="5" fill="#000"></rect><text x="415" y="458.7500000000001" dy="0.35em" text-anchor="end">figma</text></g><g><rect x="421" y="357.5000000000002" height="32.5" width="5" fill="#000"></rect><text x="415" y="373.7500000000002" dy="0.35em" text-anchor="end">flask</text></g><g><rect x="421" y="400.0000000000002" height="32.5" width="5" fill="#000"></rect><text x="415" y="416.2500000000002" dy="0.35em" text-anchor="end">jest</text></g><g><rect x="421" y="240.00000000000023" height="65" width="5" fill="#000"></rect><text x="415" y="272.5000000000002" dy="0.35em" text-anchor="end">react</text></g><g><rect x="631.5" y="309.9999999999999" height="32.50000000000006" width="5" fill="#000"></rect><text x="625.5" y="326.2499999999999" dy="0.35em" text-anchor="end">design</text></g><g><rect x="631.5" y="352.49999999999994" height="32.5" width="5" fill="#000"></rect><text x="625.5" y="368.74999999999994" dy="0.35em" text-anchor="end">java</text></g><g><rect x="631.5" y="30.000000000000057" height="162.5" width="5" fill="#000"></rect><text x="625.5" y="111.25000000000006" dy="0.35em" text-anchor="end">javaScript</text></g><g><rect x="631.5" y="394.99999999999994" height="32.5" width="5" fill="#000"></rect><text x="625.5" y="411.24999999999994" dy="0.35em" text-anchor="end">NoSQL</text></g><g><rect x="631.5" y="202.50000000000006" height="97.4999999999998" width="5" fill="#000"></rect><text x="625.5" y="251.24999999999994" dy="0.35em" text-anchor="end">python</text></g><g><rect x="631.5" y="437.49999999999994" height="32.5" width="5" fill="#000"></rect><text x="625.5" y="453.74999999999994" dy="0.35em" text-anchor="end">rust</text></g><g><rect x="0" y="50.00000000000003" height="195.00000000000006" width="5" fill="#000"></rect><text x="11" y="147.50000000000006" dy="0.35em" text-anchor="start">backend</text></g><g><rect x="0" y="255.00000000000009" height="194.9999999999999" width="5" fill="#000"></rect><text x="11" y="352.5" dy="0.35em" text-anchor="start">frontend</text></g><g><rect x="210.5" y="170.00000000000003" height="97.50000000000001" width="5" fill="#000"></rect><text x="204.5" y="218.75000000000003" dy="0.35em" text-anchor="end">cs fundamentals</text></g><g><rect x="210.5" y="352.49999999999994" height="32.5" width="5" fill="#000"></rect><text x="204.5" y="368.74999999999994" dy="0.35em" text-anchor="end">data analytics</text></g><g><rect x="210.5" y="437.49999999999994" height="32.49999999999994" width="5" fill="#000"></rect><text x="204.5" y="453.7499999999999" dy="0.35em" text-anchor="end">database</text></g><g><rect x="210.5" y="277.50000000000006" height="64.99999999999989" width="5" fill="#000"></rect><text x="204.5" y="310" dy="0.35em" text-anchor="end">QA testing</text></g><g><rect x="210.5" y="394.99999999999994" height="32.5" width="5" fill="#000"></rect><text x="204.5" y="411.24999999999994" dy="0.35em" text-anchor="end">ui &amp; ux</text></g><g><rect x="210.5" y="30.000000000000142" height="129.9999999999999" width="5" fill="#000"></rect><text x="204.5" y="95.00000000000009" dy="0.35em" text-anchor="end">web development</text></g><g><rect x="842" y="127.50000000000044" height="32.5" width="5" fill="#000"></rect><text x="836" y="143.75000000000045" dy="0.35em" text-anchor="end">algorithm</text></g><g><rect x="842" y="425.0000000000003" height="32.49999999999977" width="5" fill="#000"></rect><text x="836" y="441.25000000000017" dy="0.35em" text-anchor="end">bootstrap</text></g><g><rect x="842" y="85.00000000000043" height="32.500000000000014" width="5" fill="#000"></rect><text x="836" y="101.25000000000043" dy="0.35em" text-anchor="end">datastructures</text></g><g><rect x="842" y="170.00000000000045" height="32.5" width="5" fill="#000"></rect><text x="836" y="186.25000000000045" dy="0.35em" text-anchor="end">datavisualization</text></g><g><rect x="842" y="340.00000000000045" height="32.49999999999994" width="5" fill="#000"></rect><text x="836" y="356.25000000000045" dy="0.35em" text-anchor="end">firebase</text></g><g><rect x="842" y="212.50000000000045" height="32.5" width="5" fill="#000"></rect><text x="836" y="228.75000000000045" dy="0.35em" text-anchor="end">gatsby</text></g><g><rect x="842" y="255.00000000000045" height="32.5" width="5" fill="#000"></rect><text x="836" y="271.25000000000045" dy="0.35em" text-anchor="end">integration testing</text></g><g><rect x="842" y="42.50000000000034" height="32.500000000000085" width="5" fill="#000"></rect><text x="836" y="58.750000000000384" dy="0.35em" text-anchor="end">memory allocation</text></g><g><rect x="842" y="297.50000000000045" height="32.5" width="5" fill="#000"></rect><text x="836" y="313.75000000000045" dy="0.35em" text-anchor="end">mySQL</text></g><g><rect x="842" y="467.50000000000006" height="32.49999999999977" width="5" fill="#000"></rect><text x="836" y="483.74999999999994" dy="0.35em" text-anchor="end">pandas</text></g><g><rect x="842" y="2.2737367544323206e-13" height="32.500000000000114" width="5" fill="#000"></rect><text x="836" y="16.250000000000284" dy="0.35em" text-anchor="end">unit testing</text></g><g><rect x="842" y="382.5000000000004" height="32.499999999999886" width="5" fill="#000"></rect><text x="836" y="398.75000000000034" dy="0.35em" text-anchor="end">webcomponents</text></g></g></g></svg>